<?xml version="1.0" standalone="no"?>
<!DOCTYPE svg PUBLIC "-//W3C//DTD SVG 20010904//EN"
 "http://www.w3.org/TR/2001/REC-SVG-20010904/DTD/svg10.dtd">
<svg version="1.0" xmlns="http://www.w3.org/2000/svg"
 width="2048.000000pt" height="2048.000000pt" viewBox="0 0 2048.000000 2048.000000"
 preserveAspectRatio="xMidYMid meet">
<metadata>
Created by potrace 1.14, written by Peter Selinger 2001-2017
</metadata>
<g transform="translate(0.000000,2048.000000) scale(0.100000,-0.100000)"
fill="#000000" stroke="none">
<path d="M0 10240 l0 -10240 10240 0 10240 0 0 6776 c0 5417 -3 6774 -12 6768
-7 -4 -105 -80 -218 -169 -272 -214 -288 -226 -555 -412 -492 -343 -580 -408
-577 -424 2 -9 -28 -37 -80 -74 -131 -93 -956 -708 -1258 -939 -748 -570
-1588 -1248 -2300 -1857 -212 -181 -235 -203 -226 -217 3 -5 69 -44 145 -86
308 -167 510 -307 746 -517 280 -250 413 -432 505 -694 107 -305 105 -789 -6
-1176 -153 -537 -466 -1015 -1059 -1618 -477 -485 -1000 -925 -1698 -1430
-220 -159 -842 -555 -1172 -746 -152 -88 -629 -335 -821 -425 -302 -141 -785
-333 -1047 -414 -142 -44 -386 -102 -519 -122 -158 -25 -418 -23 -543 4 -461
98 -581 459 -348 1052 163 416 462 905 888 1455 483 623 1437 1695 2369 2663
171 177 401 416 510 530 268 278 721 736 1065 1076 177 175 281 284 279 294
-4 19 -46 40 -423 212 -505 230 -581 267 -1035 505 -441 230 -585 333 -882
627 -373 370 -542 628 -604 921 -39 188 -35 446 11 663 52 247 148 503 390
1039 212 470 315 695 415 910 274 586 363 821 480 1270 121 467 173 932 139
1243 -25 230 -80 425 -178 627 -225 462 -551 688 -1132 782 -163 27 -529 24
-727 -5 -255 -38 -486 -90 -812 -183 -790 -227 -1629 -611 -2325 -1064 -931
-606 -1835 -1384 -2585 -2225 -614 -689 -954 -1267 -1074 -1830 -49 -228 -70
-405 -70 -575 0 -147 2 -166 26 -233 45 -125 109 -207 198 -252 37 -19 69 -29
325 -99 63 -17 162 -35 230 -41 129 -12 168 -28 132 -55 -43 -31 -614 -41
-742 -13 -277 63 -430 230 -502 552 -33 148 -15 522 38 806 78 412 236 758
581 1273 292 435 523 711 924 1107 766 755 1619 1437 2529 2020 536 344 737
464 1030 616 511 264 1250 527 1810 644 271 56 403 71 667 77 272 6 394 -3
595 -43 626 -124 1192 -627 1387 -1232 154 -478 162 -1000 26 -1674 -62 -303
-106 -465 -237 -863 -151 -461 -294 -828 -558 -1435 -296 -681 -400 -981 -441
-1270 -40 -287 28 -521 221 -762 111 -139 193 -219 405 -397 96 -80 222 -188
279 -240 286 -257 501 -401 976 -654 307 -163 828 -418 856 -419 32 -1 22 -10
385 322 991 906 2380 2093 3112 2659 475 368 575 442 583 430 4 -7 63 31 165
108 489 368 498 374 1272 850 l72 44 0 3220 0 3219 -10240 0 -10240 0 0
-10240z m7455 6031 c87 -40 129 -120 193 -361 114 -428 187 -945 273 -1925 46
-531 69 -768 104 -1055 14 -113 37 -304 50 -425 77 -662 166 -1284 250 -1730
13 -71 43 -229 65 -350 101 -543 323 -1502 355 -1534 19 -19 32 -9 180 131
240 227 498 450 1130 978 633 529 808 676 989 827 93 78 236 187 319 243 139
93 187 116 187 90 0 -21 -236 -278 -450 -490 -539 -536 -1499 -1510 -1630
-1655 -143 -157 -396 -442 -497 -560 -83 -97 -83 -88 -9 -309 58 -174 147
-413 256 -686 68 -172 482 -967 710 -1365 32 -55 79 -143 105 -195 26 -52 69
-132 96 -177 27 -44 56 -100 64 -123 30 -85 14 -164 -44 -213 -44 -37 -93 -44
-171 -23 -87 22 -130 20 -230 -8 -47 -14 -135 -34 -197 -46 -152 -28 -300 -78
-708 -240 -55 -21 -185 -73 -290 -114 -449 -177 -602 -243 -878 -382 -161 -80
-296 -149 -302 -154 -5 -4 -100 -56 -210 -115 -292 -157 -405 -226 -421 -256
-7 -15 -32 -181 -54 -370 -23 -189 -56 -452 -75 -584 -19 -132 -43 -314 -55
-405 -25 -200 -47 -272 -103 -336 -126 -143 -325 -119 -415 51 -26 49 -27 56
-30 251 -3 159 2 256 22 465 39 404 42 467 23 475 -9 3 -33 -4 -54 -17 -145
-88 -569 -368 -723 -477 -102 -72 -219 -151 -261 -177 -91 -53 -206 -99 -228
-89 -9 3 -56 7 -106 8 -72 1 -100 6 -137 25 -98 48 -170 148 -184 257 -4 27
-14 57 -22 67 -13 15 -14 28 -4 94 16 102 77 282 144 423 277 585 610 1068
1445 2097 191 237 224 282 242 333 6 19 18 168 26 330 53 1051 75 1433 105
1810 40 506 51 770 80 2030 20 847 58 1514 120 2135 36 363 45 478 70 895 42
693 75 1060 126 1385 88 563 170 922 249 1090 18 38 55 102 83 140 28 39 69
103 92 143 51 91 106 145 173 171 65 25 111 26 162 2z"/>
<path d="M7255 16081 c-108 -52 -178 -144 -240 -314 -92 -255 -207 -866 -269
-1437 -47 -423 -104 -1200 -91 -1240 5 -16 13 -18 53 -14 59 7 107 -22 138
-83 20 -40 21 -61 27 -465 5 -308 10 -442 21 -492 17 -81 14 -94 -22 -98 -25
-3 -28 -7 -36 -73 -5 -38 -9 -907 -10 -1930 -1 -1796 9 -3010 24 -3035 4 -7
16 -9 26 -6 11 3 184 176 385 383 320 331 500 523 984 1050 62 67 116 134 119
148 5 18 -12 94 -49 230 -167 612 -403 1618 -499 2130 -130 686 -165 972 -202
1645 -3 58 -16 260 -29 450 -46 655 -73 1173 -105 2000 -32 818 -42 960 -81
1086 -18 59 -46 94 -74 94 -5 0 -37 -13 -70 -29z"/>
<path d="M8343 7768 c-572 -620 -940 -1050 -1207 -1408 -91 -124 -186 -250
-210 -281 -83 -105 -78 -83 -92 -489 -15 -423 -28 -671 -50 -965 -9 -115 -17
-237 -18 -270 -1 -57 0 -60 22 -58 12 2 98 36 190 77 92 41 284 120 427 176
143 56 328 128 411 161 83 32 187 75 230 95 44 20 203 90 354 156 257 113 367
159 697 294 73 29 195 81 272 114 76 33 143 60 148 60 19 0 244 79 258 90 24
20 18 35 -49 133 -91 132 -228 355 -341 557 -54 96 -126 220 -160 275 -232
376 -376 650 -478 910 -64 162 -187 501 -187 515 0 11 -29 40 -40 40 -4 0 -84
-82 -177 -182z"/>
<path d="M6054 5013 c-97 -112 -435 -559 -521 -688 -196 -296 -501 -816 -527
-902 -6 -20 -4 -23 19 -23 14 0 74 22 133 48 121 54 875 474 910 507 21 19 24
35 32 166 10 153 29 652 31 832 1 63 -2 112 -8 118 -7 7 -29 -11 -69 -58z"/>
<path d="M14834 9108 c-52 -40 -530 -465 -779 -693 -447 -409 -773 -725 -1102
-1069 -164 -171 -354 -369 -423 -441 -120 -125 -568 -608 -890 -960 -313 -343
-651 -729 -791 -905 -428 -539 -771 -1054 -975 -1465 -105 -210 -165 -379
-190 -532 -25 -155 -6 -295 44 -322 56 -30 200 -5 462 81 658 215 1259 536
2270 1212 497 331 1315 937 1716 1268 55 45 161 133 234 193 436 357 923 849
1169 1180 141 190 280 434 346 609 142 378 118 761 -69 1089 -82 143 -164 230
-366 388 -169 132 -572 389 -610 389 -9 0 -30 -10 -46 -22z"/>
</g>
</svg>
